<svg width="160" height="160" viewBox="0 0 160 160" fill="none" xmlns="http://www.w3.org/2000/svg">
  <defs>
    <linearGradient id="bg" x1="20" y1="18" x2="137" y2="143" gradientUnits="userSpaceOnUse">
      <stop stop-color="#5E7894"/>
      <stop offset="1" stop-color="#8DA5B8"/>
    </linearGradient>
    <linearGradient id="accent" x1="80" y1="34" x2="80" y2="127" gradientUnits="userSpaceOnUse">
      <stop stop-color="#FFFFFF"/>
      <stop offset="1" stop-color="#EAF0F5"/>
    </linearGradient>
  </defs>

  <rect x="10" y="10" width="140" height="140" rx="38" fill="url(#bg)"/>
  <path d="M78.5 34H81.5V44H91V47H81.5V57H78.5V47H69V44H78.5V34Z" fill="white"/>
  <path d="M47 120.5H113" stroke="white" stroke-width="6" stroke-linecap="round"/>
  <path d="M56 116V74.5L80 56L104 74.5V116" stroke="url(#accent)" stroke-width="7" stroke-linejoin="round"/>
  <path d="M70 84H90V116H70V84Z" fill="url(#accent)"/>
  <path d="M76 77.5H84V116H76V77.5Z" fill="#D9E4EC"/>
  <path d="M66 67.5H94" stroke="white" stroke-width="5.5" stroke-linecap="round"/>
  <path d="M52 90H63" stroke="white" stroke-width="5" stroke-linecap="round"/>
  <path d="M97 90H108" stroke="white" stroke-width="5" stroke-linecap="round"/>
  <circle cx="80" cy="56" r="4.5" fill="white"/>
</svg>
